<?xml version="1.0" encoding="UTF-8"?>
<svg id="Livello_1" data-name="Livello 1" xmlns="http://www.w3.org/2000/svg" viewBox="0 0 226.63 226.63">
  <defs>
    <style>
      .cls-1 {
        fill: #33b6c9;
      }

      .cls-1, .cls-2, .cls-3, .cls-4 {
        stroke-width: 0px;
      }

      .cls-2 {
        fill: #00a4bc;
      }

      .cls-3 {
        fill: #fff;
      }

      .cls-4 {
        fill: #66c8d7;
      }
    </style>
  </defs>
  <path class="cls-4" d="m143.7,113.32c0,16.78-13.6,30.39-30.39,30.39s-30.39-13.6-30.39-30.39,13.6-30.39,30.39-30.39,30.39,13.6,30.39,30.39Zm23.61-30.77c-10.02-15.76-32.84-29.05-57.29-28.26-22.87.74-43.47,13.67-53.03,28.65-20.38,31.9-2.65,91.81,52.65,139.35,58.73-47.27,77.76-108.15,57.68-139.74Z"/>
  <path class="cls-1" d="m142.44,122c6.11-22.61-5.93-49.22-30.1-67.75h-.03c-.76,0-1.52,0-2.29.03-22.87.74-43.47,13.67-53.03,28.65-10.11,15.82-10.84,38.53-2.27,63.2h0c-2.61-35.64,25.6-63.99,55.3-63.2h3.29c16.78,0,30.39,13.6,30.39,30.39,0,1.49-.11,2.95-.31,4.38"/>
  <path class="cls-2" d="m82.93,113.32c0-16.78,13.6-30.39,30.39-30.39h-3.29c-29.7-.79-57.91,27.56-55.3,63.2h0c8.71,25.08,27.04,52.19,54.92,76.16,9.17-7.38,17.38-15.1,24.62-22.98-21.77-17.4-52.94-48.41-51.33-85.98.07-1.6.2-3.21.39-4.83"/>
  <path class="cls-3" d="m113.32,169.91c-31.25,0-56.59-25.34-56.59-56.59s25.34-56.59,56.59-56.59,56.59,25.34,56.59,56.59-25.34,56.59-56.59,56.59Zm113.32-56.59C226.63,50.73,175.9,0,113.32,0S0,50.73,0,113.32s50.73,113.32,113.32,113.32,113.32-50.73,113.32-113.32Z"/>
  <circle class="cls-4" cx="113.32" cy="113.32" r="15.66"/>
</svg>