<?xml version="1.0" encoding="UTF-8"?>
<svg id="Livello_2" data-name="Livello 2" xmlns="http://www.w3.org/2000/svg" viewBox="0 0 163 163">
  <defs>
    <style>
      .cls-1 {
        fill: #33b6c9;
        stroke-width: 0px;
      }
    </style>
  </defs>
  <path class="cls-1" d="m0,81.5C0,36.49,36.49,0,81.5,0s81.5,36.49,81.5,81.5-36.49,81.5-81.5,81.5S0,126.51,0,81.5Zm81.5,42.89c23.69,0,42.89-19.2,42.89-42.89s-19.2-42.89-42.89-42.89-42.89,19.2-42.89,42.89,19.2,42.89,42.89,42.89Zm-.71-15.73c14.61,0,26.45-11.84,26.45-26.45s-11.84-26.45-26.45-26.45-26.45,11.84-26.45,26.45,11.84,26.45,26.45,26.45Z"/>
</svg>