<?xml version="1.0" encoding="utf-8"?>
<!-- Generator: Adobe Illustrator 27.8.0, SVG Export Plug-In . SVG Version: 6.00 Build 0)  -->
<svg version="1.1" id="Livello_2" xmlns="http://www.w3.org/2000/svg" xmlns:xlink="http://www.w3.org/1999/xlink" x="0px" y="0px"
	 viewBox="0 0 126.2 168" style="enable-background:new 0 0 126.2 168;" xml:space="preserve">
<style type="text/css">
	.st0{fill:#FFFFFF;}
	.st1{fill:#326A99;}
	.st2{fill:#76A4CC;}
	.st3{fill:#438DCC;}
</style>
<circle class="st0" cx="63.1" cy="59.1" r="37"/>
<path class="st1" d="M94.8,59.1c0,16.8-13.6,30.4-30.4,30.4c-16.8,0-30.4-13.6-30.4-30.4s13.6-30.4,30.4-30.4
	C81.2,28.7,94.8,42.3,94.8,59.1z M118.5,28.3c-10-15.8-32.8-29-57.3-28.3c-22.9,0.7-43.5,13.7-53,28.6
	C-12.2,60.6,5.5,120.5,60.8,168C119.5,120.8,138.5,59.9,118.5,28.3z"/>
<path class="st2" d="M93.6,67.7C99.7,45.1,87.7,18.5,63.5,0l0,0c-0.8,0-1.5,0-2.3,0c-22.9,0.7-43.5,13.7-53,28.6
	C-2,44.5-2.7,67.2,5.9,91.9l0,0c-2.6-35.6,25.6-64,55.3-63.2h3.3c16.8,0,30.4,13.6,30.4,30.4c0,1.5-0.1,2.9-0.3,4.4"/>
<path class="st3" d="M34.1,59.1c0-16.8,13.6-30.4,30.4-30.4h-3.3C31.5,27.9,3.3,56.2,5.9,91.9l0,0c8.7,25.1,27,52.2,54.9,76.2
	c9.2-7.4,17.4-15.1,24.6-23C63.6,127.6,32.5,96.6,34.1,59.1c0.1-1.6,0.2-3.2,0.4-4.8"/>
</svg>
