<?xml version="1.0" encoding="UTF-8"?><svg id="b" xmlns="http://www.w3.org/2000/svg" viewBox="0 0 128.23 170.33"><rect x="27.65" y="29.68" width="64.7" height="64.7" style="fill:#fff; stroke-width:0px;"/><rect x="33.16" y="29.68" width="64.7" height="64.7" style="fill:#fff; stroke-width:0px;"/><path d="m95.9,60.07c0,16.78-13.6,30.39-30.39,30.39s-30.39-13.6-30.39-30.39,13.6-30.39,30.39-30.39,30.39,13.6,30.39,30.39Zm23.61-30.77C109.49,13.53,86.67.24,62.22,1.03,39.35,1.77,18.75,14.71,9.19,29.68c-20.38,31.9-2.65,91.81,52.65,139.35,58.73-47.27,77.76-108.15,57.68-139.74Z" style="fill:none; stroke:#008887; stroke-miterlimit:10; stroke-width:2px;"/><path d="m95.9,60.07c0,16.78-13.6,30.39-30.39,30.39s-30.39-13.6-30.39-30.39,13.6-30.39,30.39-30.39,30.39,13.6,30.39,30.39Zm23.61-30.77C109.49,13.53,86.67.24,62.22,1.03,39.35,1.77,18.75,14.71,9.19,29.68c-20.38,31.9-2.65,91.81,52.65,139.35,58.73-47.27,77.76-108.15,57.68-139.74Z" style="fill:#a5c715; stroke-width:0px;"/><path d="m94.63,68.75c6.11-22.61-5.93-49.22-30.1-67.75h-.03c-.76,0-1.52,0-2.29.03C39.35,1.77,18.75,14.71,9.19,29.68-.92,45.5-1.66,68.21,6.91,92.88h0c-2.61-35.64,25.6-63.99,55.3-63.2h3.29c16.78,0,30.39,13.6,30.39,30.39,0,1.49-.11,2.95-.31,4.38" style="fill:#32632a; stroke-width:0px;"/><path d="m35.12,60.07c0-16.78,13.6-30.39,30.39-30.39h-3.29c-29.7-.79-57.91,27.56-55.3,63.2h0c8.71,25.08,27.04,52.19,54.92,76.16,9.17-7.38,17.38-15.1,24.62-22.98-21.77-17.4-52.94-48.41-51.33-85.98.07-1.6.2-3.21.39-4.83" style="fill:#526333; stroke-width:0px;"/></svg>